[url=http://www.imdb.com/title/tt0988045/]IMDB Rating Click Here[/url]
[color=red]StoryLine[/color]
[color=green]After finally catching serial killer and occult \"sorcerer\" Lord Blackwood, legendary sleuth Sherlock Holmes and his assistant Dr. Watson can close yet another successful case. But when Blackwood mysteriously returns from the grave and resumes his killing spree, Holmes must take up the hunt once again. Contending with his partner\'s new fiancée and the dimwitted head of Scotland Yard, the dauntless detective must unravel the clues that will lead him into a twisted web of murder, deceit, and black magic - and the deadly embrace of temptress Irene Adler[/color]
[img]http://www.heyuguys.co.uk/images/2009/12/Sherlock-Holmes-UK-Poster.jpg[/img]
Complete name                    : C:\\Sherlock Holmes 2009 BRRip 1080p ^^Dual Audio Eng Hindi ^^TAKRIAN^^\\Sherlock Holmes 2009 BRRip 1080p ^^Dual Audio Eng Hindi ^^TAKRIAN^^.mkv
Format                           : Matroska
File size                        : 3.91 GiB
Duration                         : 2h 8mn
Overall bit rate                 : 4 361 Kbps
Movie name                       : Sherlock Holmes ^^TAKRIAN^^
Encoded date                     : UTC 2011-12-12 13:45:52
Writing application              : mkvmerge v4.4.0 (\'Die Wiederkehr\') built on Oct 31 2010 21:52:48
Writing library                  : libebml v1.0.0 + libmatroska v1.0.0

Video
ID                               : 1
Format                           : AVC
Format/Info                      : Advanced Video Codec
Format profile                   : High@L4.0
Format settings, CABAC           : Yes
Format settings, ReFrames        : 3 frames
Format settings, GOP             : M=4, N=46
Muxing mode                      : Header stripping
Codec ID                         : V_MPEG4/ISO/AVC
Duration                         : 2h 8mn
Bit rate mode                    : Variable
Bit rate                         : 3 666 Kbps
Maximum bit rate                 : 25.0 Mbps
Width                            : 1 920 pixels
Height                           : 1 080 pixels
Display aspect ratio             : 16:9
Frame rate                       : 23.976 fps
Color space                      : YUV
Chroma subsampling               : 4:2:0
Bit depth                        : 8 bits
Scan type                        : Progressive
Bits/(Pixel*Frame)               : 0.074
Stream size                      : 3.29 GiB (84%)
Title                            : ^^TAKRIAN^^^DIRTYHD^^
Writing library                  : x264 core 114 r1924 08d04a4
Encoding settings                : cabac=1 / ref=3 / deblock=1:0:0 / analyse=0x3:0x133 / me=umh / subme=7 / psy=1 / psy_rd=1.00:0.00 / mixed_ref=1 / me_range=16 / chroma_me=1 / trellis=1 / 8x8dct=1 / cqm=0 / deadzone=21,11 / fast_pskip=1 / chroma_qp_offset=-2 / threads=3 / sliced_threads=0 / nr=0 / decimate=1 / interlaced=0 / constrained_intra=0 / bframes=3 / b_pyramid=0 / b_adapt=1 / b_bias=0 / direct=1 / weightb=1 / open_gop=0 / weightp=2 / keyint=240 / keyint_min=24 / scenecut=40 / intra_refresh=0 / rc_lookahead=40 / rc=crf / mbtree=1 / crf=22.0 / qcomp=0.60 / qpmin=0 / qpmax=69 / qpstep=4 / vbv_maxrate=25000 / vbv_bufsize=25000 / crf_max=0.0 / nal_hrd=vbr / ip_ratio=1.40 / aq=1:1.00

[img]http://img402.imageshack.us/img402/71/dirtyhd.png[/img]


Audio #1
ID                               : 2
Format                           : AC-3
Format/Info                      : Audio Coding 3
Mode extension                   : CM (complete main)
Muxing mode                      : Header stripping
Codec ID                         : A_AC3
Duration                         : 2h 8mn
Bit rate mode                    : Constant
Bit rate                         : 384 Kbps
Channel(s)                       : 6 channels
Channel positions                : Front: L C R, Side: L R, LFE
Sampling rate                    : 48.0 KHz
Bit depth                        : 16 bits
Compression mode                 : Lossy
Stream size                      : 353 MiB (9%)
Title                            : ^^TAKRIAN^^^ENGLISH^^
Language                         : English

Audio #2
ID                               : 3
Format                           : AC-3
Format/Info                      : Audio Coding 3
Mode extension                   : CM (complete main)
Muxing mode                      : Header stripping
Codec ID                         : A_AC3
Duration                         : 2h 8mn
Bit rate mode                    : Constant
Bit rate                         : 224 Kbps
Channel(s)                       : 2 channels
Channel positions                : Front: L R
Sampling rate                    : 48.0 KHz
Bit depth                        : 16 bits
Compression mode                 : Lossy
Delay relative to video          : 500ms
Stream size                      : 206 MiB (5%)
Title                            : ^^TAKRIAN^^^HINDI^^

[img]http://img831.imageshack.us/img831/8317/vlcsnap2011121220h59m38.png[/img]
[img]http://img85.imageshack.us/img85/5207/vlcsnap2011121220h59m30.png[/img]
[img][img]http://img542.imageshack.us/img542/3005/vlcsnap2011121220h59m24.png[/img]
[img]http://img829.imageshack.us/img829/3882/vlcsnap2011121220h59m13.png[/img]
[img]http://img833.imageshack.us/img833/7553/vlcsnap2011121220h58m47.png[/img]
[img]http://img94.imageshack.us/img94/8813/vlcsnap2011121220h58m38.png[/img]
